HIERARCHY
ROOT Hips
{
	OFFSET 0.00000 0.00000 0.00000
	CHANNELS 6 Xposition Yposition Zposition Yrotation Zrotation Xrotation 
	JOINT Lumbar
	{
		OFFSET 0 0 0
		CHANNELS 3 Zrotation Xrotation Yrotation
		JOINT Neck
		{
			OFFSET 0.00 0.2701 0.00
			CHANNELS 3 Zrotation Xrotation Yrotation
			End Site
			{
				OFFSET 0.00 0.1379 0.00
			}
		}
		JOINT RightShoulder
		{
			OFFSET 0.0119 0.2289 0.1181
			CHANNELS 3 Zrotation Xrotation Yrotation
			JOINT RightElbow
			{
				OFFSET 0.00 -0.1475 0.00
				CHANNELS 2 Zrotation Yrotation
				JOINT RightWrist
				{
					OFFSET 0.00 -0.1605 0.00
					CHANNELS 2 Zrotation Xrotation
					End Site
					{
						OFFSET 0.0040 -0.1068 0.0006
					}
				}
			}
		}
		JOINT LeftShoulder
		{
			OFFSET 0.0119 0.2289 -0.1181
			CHANNELS 3 Zrotation Xrotation Yrotation
			JOINT LeftElbow
			{
				OFFSET 0.00 -0.1475 0.00
				CHANNELS 2 Zrotation Yrotation
				JOINT LeftWrist
				{
					OFFSET 0.00 -0.1605 0.00
					CHANNELS 2 Zrotation Xrotation
					End Site
					{
						OFFSET 0.0040 -0.1068 -0.0006
					}
				}
			}
		}
	}
	JOINT RightHip
	{
		OFFSET 0.0316 -0.0424 0.0458
		CHANNELS 3 Zrotation Xrotation Yrotation
		JOINT RightKnee
		{
			OFFSET 0.00 -0.2438 0.00
			CHANNELS 1 Zrotation
			JOINT RightAnkle
			{
				OFFSET 0.00 -0.2449 0.00
				CHANNELS 3 Zrotation Xrotation Yrotation
				End Site
				{
					OFFSET 0.1237 -0.0542 0.0051
				}
			}
		}
	}
	JOINT LeftHip
	{
		OFFSET 0.0316 -0.0424 -0.0458
		CHANNELS 3 Zrotation Xrotation Yrotation
		JOINT LeftKnee
		{
			OFFSET 0.00 -0.2438 0.00
			CHANNELS 1 Zrotation
			JOINT LeftAnkle
			{
				OFFSET 0.00 -0.2449 0.00
				CHANNELS 3 Zrotation Xrotation Yrotation
				End Site
				{
					OFFSET 0.1237 -0.0542 -0.0051
				}
			}
		}
	}
}
MOTION
Frames: 11
Frame Time: 0.02
-0.00082 3e-05 -0.00012 -173.089 -30.28132 1.78004 44.60507 -1.32112 -8.02825 -12.55407 3.2005 -0.38364 -19.72199 -6.41042 -0.41932 27.02544 96.59117 8.3895 1.18917 -20.12535 7.23415 -3.39854 29.8196 -106.11923 16.17972 -1.37461 30.18576 -2.08524 -1.68596 -20.35405 -7.63803 -5.46926 -3.60861 34.53121 4.71044 5.15057 -24.46664 -6.66751 2.91831 2.18936
-0.00052 3e-05 -0.00031 -173.12322 -30.27752 1.78637 44.55804 -1.30238 -8.0521 -12.58177 3.19472 -0.38393 -19.67258 -6.43411 -0.37851 26.98452 96.69056 8.43174 1.18254 -20.11696 7.27895 -3.54116 29.87636 -106.21885 16.24011 -1.36691 30.22431 -2.12635 -1.94449 -20.36272 -7.60724 -5.44657 -3.5937 34.56616 4.67469 4.95844 -24.47578 -6.67616 2.94517 2.20208
-0.00021 3e-05 -0.00049 -173.15737 -30.27378 1.7927 44.51111 -1.28368 -8.07587 -12.60925 3.18897 -0.38423 -19.62323 -6.45712 -0.34035 26.94367 96.79841 8.476 1.17735 -20.10855 7.32361 -3.68342 29.93292 -106.3182 16.30034 -1.35922 30.26286 -2.16735 -2.20234 -20.37137 -7.57652 -5.42394 -3.57883 34.60112 4.63904 4.76684 -24.48489 -6.68479 2.97198 2.21477
0.0001 3e-05 -0.00068 -173.1915 -30.27 1.79902 44.46422 -1.265 -8.09964 -12.63685 3.18321 -0.38452 -19.57396 -6.48059 -0.30027 26.90286 96.89958 8.51863 1.17107 -20.10017 7.36826 -3.82562 29.98949 -106.41751 16.36055 -1.35154 30.30131 -2.20834 -2.46011 -20.38002 -7.54582 -5.40131 -3.56397 34.63598 4.6034 4.57529 -24.494 -6.69342 2.99876 2.22746
0.00041 4e-05 -0.00087 -173.2257 -30.26615 1.80534 44.41725 -1.2463 -8.1235 -12.66469 3.17743 -0.38482 -19.52466 -6.50511 -0.25606 26.86203 96.9872 8.55799 1.16254 -20.09183 7.41304 -3.96815 30.04629 -106.51709 16.42091 -1.34384 30.33973 -2.24941 -2.71846 -20.38867 -7.51506 -5.37864 -3.54908 34.67081 4.56766 4.38323 -24.50312 -6.70205 3.02558 2.24016
0.00072 4e-05 -0.00105 -173.25975 -30.26265 1.8117 44.37041 -1.22761 -8.14708 -12.69142 3.17174 -0.38511 -19.47523 -6.52501 -0.23029 26.82113 97.13648 8.61228 1.16419 -20.08329 7.45747 -4.10984 30.10236 -106.61595 16.48085 -1.33619 30.37854 -2.29026 -2.97522 -20.39731 -7.48446 -5.35608 -3.53426 34.70603 4.53218 4.19261 -24.51223 -6.71069 3.05234 2.25284
0.00102 4e-05 -0.00124 -173.29405 -30.25844 1.81797 44.32336 -1.20891 -8.17119 -12.72036 3.16587 -0.38541 -19.42611 -6.55384 -0.16891 26.78039 97.16644 8.63768 1.14614 -20.07515 7.50254 -4.25303 30.1598 -106.71613 16.54157 -1.32844 30.41651 -2.33154 -3.235 -20.40598 -7.45355 -5.33332 -3.51929 34.74042 4.49624 3.99932 -24.52136 -6.7193 3.0792 2.26555
0.00133 4e-05 -0.00142 -173.32812 -30.25489 1.82432 44.2765 -1.19022 -8.19483 -12.74724 3.16015 -0.3857 -19.37674 -6.57508 -0.13769 26.73953 97.29746 8.68751 1.14482 -20.06665 7.54705 -4.39492 30.21602 -106.81511 16.60156 -1.32078 30.45527 -2.37239 -3.49181 -20.41462 -7.42295 -5.31076 -3.50448 34.77559 4.46071 3.80845 -24.53046 -6.72794 3.10597 2.27823
0.00164 4e-05 -0.00161 -173.36196 -30.25214 1.83078 44.22984 -1.17153 -8.21781 -12.7717 3.15468 -0.386 -19.32686 -6.58434 -0.15439 26.69837 97.58927 8.77638 1.16991 -20.05764 7.59076 -4.53498 30.27059 -106.91261 16.66074 -1.31327 30.49497 -2.41287 -3.74587 -20.42322 -7.39262 -5.28834 -3.4898 34.81167 4.4257 3.6206 -24.53954 -6.73661 3.13266 2.29088
0.00194 5e-05 -0.0018 -173.39726 -30.24476 1.83664 44.18195 -1.1528 -8.24436 -12.81039 3.14795 -0.38629 -19.27929 -6.6544 0.07134 26.65849 97.06812 8.66825 1.061 -20.05136 7.63874 -4.68486 30.33418 -107.01861 16.72483 -1.305 30.52918 -2.45592 -4.01841 -20.43205 -7.36041 -5.26483 -3.47419 34.84241 4.38773 3.41559 -24.54878 -6.74512 3.15989 2.30375
0.00226 5e-05 -0.00198 -173.42938 -30.24719 1.84376 44.13673 -1.13418 -8.2635 -12.81887 3.14378 -0.3866 -19.22725 -6.60145 -0.19289 26.6162 98.18952 8.9579 1.22316 -20.03948 7.67791 -4.81443 30.37906 -107.10664 16.77839 -1.2983 30.57502 -2.49326 -4.25022 -20.44039 -7.33238 -5.2438 -3.46063 34.88446 4.356 3.24667 -24.55767 -6.75395 3.1859 2.31611
